<?xml version="1.0" encoding="UTF-8"?>
<svg width="200" height="200" version="1.1" viewBox="0 0 200 200" xml:space="preserve"
  xmlns="http://www.w3.org/2000/svg">
  <g fill="none" stroke="transparent" stroke-width="3">
    <path d="m0 16v-16h16" />
    <path d="m200 16v-16h-16" />
    <path d="m0 184v16h16" />
    <path d="m200 184v16h-16" />
  </g>
  <rect x="2.5" y="68.5" width="195" height="57" fill="none" stroke="#000" stroke-width="5" />
  <path d="m100 68.5v57" stroke="#000" stroke-width="5" />
  <path
    d="m113.18 85.59v21.953h6.8125v-8.9102h0.59961c0.61893 0 1.173 0.17036 1.6621 0.50977 0.35938 0.25955 0.76736 0.82292 1.2266 1.6914l3.625 6.709h7.666l-3.2793-6.3652c-0.15972-0.31944-0.47981-0.77235-0.95898-1.3613-0.46919-0.58898-0.82856-0.97461-1.0781-1.1543-0.36935-0.26953-0.95702-0.53906-1.7656-0.80859 1.0082-0.2296 1.8019-0.5178 2.3809-0.86719 0.90842-0.54904 1.6215-1.2641 2.1406-2.1426 0.5191-0.88846 0.7793-1.9403 0.7793-3.1582 0-1.3976-0.34071-2.5805-1.0195-3.5488-0.67882-0.9783-1.5716-1.6484-2.6797-2.0078s-2.7103-0.53906-4.8066-0.53906h-11.305zm26.248 0v21.953h18.508v-4.9727h-11.709v-4.3262h10.557v-4.4785h-10.557v-3.4883h11.379v-4.6875h-18.178zm24.631 0v21.953h6.8144v-8.1465h3.7129c2.7352 0 4.7661-0.62326 6.0938-1.8711 1.3377-1.2478 2.0078-2.9811 2.0078-5.1973 0-2.1562-0.61393-3.8184-1.8418-4.9863-1.2179-1.168-3.056-1.752-5.5117-1.752h-11.275zm-44.066 4.4336h2.9805c1.2379 0 2.0801 0.18902 2.5293 0.56836 0.44922 0.37934 0.67383 0.92404 0.67383 1.6328 0 0.47917-0.1441 0.90213-0.4336 1.2715-0.27951 0.36936-0.64453 0.59961-1.0938 0.68945-0.88845 0.19965-1.4874 0.29883-1.7969 0.29883h-2.8594v-4.4609zm50.881 0.029296h1.9316c1.2678 0 2.1306 0.23958 2.5898 0.71875 0.4592 0.47917 0.68945 1.0632 0.68945 1.752 0 0.70877-0.26584 1.2928-0.79492 1.752-0.52908 0.44922-1.4462 0.67383-2.7539 0.67383h-1.6621v-4.8965z"
    fill-rule="evenodd" fill="#000" />
  <path
    d="m67.881 85.217c-3.5339 0-6.2684 0.977-8.2051 2.9336-1.9266 1.9466-2.8906 4.7374-2.8906 8.3711 0 2.7253 0.55035 4.962 1.6484 6.709 1.0981 1.747 2.4008 2.9692 3.9082 3.668 1.5174 0.6888 3.4677 1.0332 5.8535 1.0332 1.9666 0 3.5838-0.2845 4.8516-0.85352 1.2778-0.56901 2.3466-1.4132 3.2051-2.5312 0.85851-1.1181 1.4874-2.5106 1.8867-4.1777l-5.9453-1.7969c-0.29948 1.3876-0.78234 2.447-1.4512 3.1758-0.65886 0.72873-1.6378 1.0918-2.9355 1.0918-1.3377 0-2.3765-0.44921-3.1152-1.3476-0.73872-0.90842-1.1074-2.5799-1.1074-5.0156 0-1.9666 0.30881-3.4097 0.92774-4.3281 0.81858-1.2378 1.9978-1.8555 3.5352-1.8555 0.67882 0 1.2928 0.13846 1.8418 0.41797 0.54904 0.27951 1.0132 0.68012 1.3926 1.1992 0.2296 0.30946 0.44857 0.79796 0.6582 1.4668l5.9902-1.332c-0.76866-2.316-1.9479-4.0343-3.5352-5.1523-1.5773-1.1181-3.7485-1.6758-6.5137-1.6758zm-34.963 0.37305v21.953h18.508v-4.9727h-11.709v-4.3262h10.557v-4.4785h-10.557v-3.4883h11.379v-4.6875h-18.178z"
    fill-rule="evenodd" fill="#000" />
</svg>