<?xml version="1.0" encoding="utf-8"?>
<!-- Generator: Adobe Illustrator 27.3.1, SVG Export Plug-In . SVG Version: 6.00 Build 0)  -->
<svg version="1.1" id="Capa_1" xmlns="http://www.w3.org/2000/svg" xmlns:xlink="http://www.w3.org/1999/xlink" x="0px" y="0px"
	 width="458.1px" height="402.3px" viewBox="0 0 458.1 402.3" style="enable-background:new 0 0 458.1 402.3;" xml:space="preserve"
	>
<g>
	<path d="M454.1,368.7L247.3,10.6C243.5,4,236.6,0,229,0c-7.6,0-14.6,4-18.3,10.6L2.8,370.5c-3.8,6.6-3.8,14.6,0,21.2
		c3.8,6.6,10.8,10.6,18.3,10.6h415.6c0,0,0.1,0,0.1,0c11.7,0,21.2-9.5,21.2-21.2C458.1,376.5,456.6,372.2,454.1,368.7z M57.9,359.9
		L229,63.6l171.1,296.4L57.9,359.9L57.9,359.9z M218.1,135.1h22c1.8,0,3.5,0.7,4.8,2c1.3,1.3,1.9,3,1.9,4.9l-4.4,138.7
		c-0.1,3.6-3.1,6.5-6.7,6.5h-13.1c-3.6,0-6.6-2.9-6.7-6.5L211.4,142c0-1.8,0.6-3.6,1.9-4.9C214.5,135.8,216.3,135.1,218.1,135.1z
		 M246.4,305.6v25.1c0,3.7-3,6.7-6.7,6.7h-21.4c-3.7,0-6.7-3-6.7-6.7v-25.1c0-3.7,3-6.7,6.7-6.7h21.4
		C243.5,298.9,246.4,301.9,246.4,305.6z"/>
</g>
</svg>
