<?xml version="1.0" encoding="UTF-8"?>
<svg id="Layer_1" xmlns="http://www.w3.org/2000/svg" version="1.1" viewBox="0 0 200 200">
  <!-- Generator: Adobe Illustrator 29.5.1, SVG Export Plug-In . SVG Version: 2.1.0 Build 141)  -->
  <g fill="none" stroke="transparent" stroke-width="3">
    <path d="M0,16V0h16" />
    <path d="M200,16V0h-16" />
    <path d="M0,184v16h16" />
    <path d="M200,184v16h-16" />
  </g>
  <g fill="#000" fill-rule="evenodd">
    <path
      d="M82.5,130.4c-1.9.2-3.9.3-5.8.3-32.2,0-58.3-26.1-58.3-58.3S44.4,14,76.7,14s3.9,0,5.8.3v17.5c-1.9-.2-3.9-.3-5.8-.3-22.6,0-40.8,18.3-40.8,40.8s18.3,40.8,40.8,40.8c1.9,0,3.9,0,5.8-.3v17.5Z" />
    <path
      d="M181.7,130.4c-1.9.2-3.9.3-5.8.3-32.2,0-58.3-26.1-58.3-58.3s26.1-58.3,58.3-58.3,3.9,0,5.8.3v17.5c-1.9-.2-3.9-.3-5.8-.3-19.2,0-35.8,13.3-39.9,32.1h34.1v17.5h-34.1c4.1,18.7,20.7,32.1,39.9,32.1,1.9,0,3.9,0,5.8-.3v17.5Z" />
  </g>
  <g fill="#000">
    <path
      d="M70.9,175.4v6.2h-23.5c.2-2.4,1-4.6,2.3-6.7s3.8-4.9,7.5-8.4c3-2.8,4.9-4.7,5.6-5.7.9-1.4,1.4-2.7,1.4-4.1s-.4-2.6-1.2-3.4c-.8-.8-1.9-1.2-3.3-1.2s-2.5.4-3.3,1.3c-.8.8-1.3,2.2-1.4,4.2l-6.7-.7c.4-3.7,1.6-6.3,3.7-7.9,2.1-1.6,4.7-2.4,7.9-2.4s6.1.9,8.1,2.8,3,4.2,3,6.9-.3,3.1-.8,4.5-1.5,2.9-2.7,4.5c-.8,1-2.3,2.5-4.4,4.4s-3.4,3.2-4,3.9-1,1.2-1.4,1.9h13.3Z" />
    <path
      d="M75.4,153.3v-6.2h22.9v4.9c-1.9,1.9-3.8,4.5-5.8,8s-3.4,7.2-4.5,11.1c-1,3.9-1.5,7.4-1.5,10.5h-6.5c.1-4.8,1.1-9.8,3-14.8s4.4-9.5,7.5-13.5h-15.2Z" />
    <path
      d="M102.7,173.5l6.5-.7c.2,1.3.6,2.3,1.2,2.9.7.6,1.5,1,2.7,1s2.6-.6,3.5-1.9c1-1.3,1.6-3.9,1.9-7.9-1.7,2-3.8,2.9-6.3,2.9s-5.1-1.1-7.1-3.2c-2-2.1-3-4.9-3-8.3s1-6.4,3.2-8.6c2.1-2.2,4.8-3.2,8-3.2s6.4,1.4,8.7,4.1,3.4,7.2,3.4,13.5-1.2,11-3.5,13.8-5.4,4.2-9.2,4.2-4.9-.7-6.6-2.2c-1.7-1.5-2.8-3.6-3.3-6.5ZM117.8,158.9c0-2.2-.5-3.8-1.5-5-1-1.2-2.1-1.8-3.4-1.8s-2.3.5-3.1,1.5-1.2,2.6-1.2,4.8.5,3.9,1.3,5,2,1.6,3.3,1.6,2.4-.5,3.2-1.5c.9-1,1.3-2.5,1.3-4.5Z" />
    <path
      d="M129.7,153.3v-6.2h22.9v4.9c-1.9,1.9-3.8,4.5-5.8,8s-3.4,7.2-4.5,11.1c-1,3.9-1.5,7.4-1.5,10.5h-6.5c.1-4.8,1.1-9.8,3-14.8,1.9-5,4.4-9.5,7.5-13.5h-15.2Z" />
  </g>
</svg>