<?xml version="1.0" encoding="UTF-8"?>
<svg id="Layer_1" xmlns="http://www.w3.org/2000/svg" version="1.1" viewBox="0 0 200 200">
  <!-- Generator: Adobe Illustrator 29.5.1, SVG Export Plug-In . SVG Version: 2.1.0 Build 141)  -->
  <defs>
    <style>
      .st0 {
        fill-rule: evenodd;
      }

      .st1 {
        fill: none;
        stroke="transparent";
        stroke-width: 3px;
      }
    </style>
  </defs>
  <g>
    <path class="st1" d="M0,16V0h16" />
    <path class="st1" d="M200,16V0h-16" />
    <path class="st1" d="M0,184v16h16" />
    <path class="st1" d="M200,184v16h-16" />
  </g>
  <g>
    <path class="st0"
      d="M82.5,158c-1.9.2-3.9.3-5.8.3-32.2,0-58.3-26.1-58.3-58.3s26.1-58.3,58.3-58.3,3.9,0,5.8.3v17.5c-1.9-.2-3.9-.3-5.8-.3-22.6,0-40.8,18.3-40.8,40.8s18.3,40.8,40.8,40.8c1.9,0,3.9,0,5.8-.3v17.5Z" />
    <path class="st0"
      d="M181.7,158c-1.9.2-3.9.3-5.8.3-32.2,0-58.3-26.1-58.3-58.3s26.1-58.3,58.3-58.3,3.9,0,5.8.3v17.5c-1.9-.2-3.9-.3-5.8-.3-19.2,0-35.8,13.3-39.9,32.1h34.1v17.5h-34.1c4.1,18.7,20.7,32.1,39.9,32.1,1.9,0,3.9,0,5.8-.3v17.5Z" />
  </g>
</svg>