<?xml version="1.0" encoding="utf-8"?>
<!-- Generator: Adobe Illustrator 27.3.1, SVG Export Plug-In . SVG Version: 6.00 Build 0)  -->
<svg version="1.1" id="Layer_1" xmlns="http://www.w3.org/2000/svg" xmlns:xlink="http://www.w3.org/1999/xlink" x="0px" y="0px"
	 width="647.5px" height="742.6px" viewBox="0 0 647.5 742.6" style="enable-background:new 0 0 647.5 742.6;" xml:space="preserve"
	>
<style type="text/css">
	.st0{display:none;}
	.st1{display:inline;}
	.st2{fill:none;stroke:#000000;stroke-miterlimit:10;}
	.st3{display:inline;fill:none;stroke:#FF0000;stroke-linecap:round;stroke-linejoin:round;stroke-miterlimit:10;}
</style>
<g id="Layer_1_00000171679469145558459520000017823127665528402366_" class="st0">
	<g class="st1">
		<polyline class="st2" points="-162.9,-85.1 979.1,-85.1 979.1,648.9 -162.9,648.9 -162.9,-85.1 		"/>
		<line class="st2" x1="-162.9" y1="-85.1" x2="979.1" y2="648.9"/>
		<line class="st2" x1="979.1" y1="-85.1" x2="-162.9" y2="648.9"/>
	</g>
</g>
<g id="contour_1" class="st0">
	<circle class="st3" cx="198.1" cy="274.9" r="210"/>
	<circle class="st3" cx="708.1" cy="274.9" r="210"/>
	<circle class="st3" cx="198.1" cy="274.9" r="300"/>
	<circle class="st3" cx="708.1" cy="274.9" r="300"/>
</g>
<g id="lettre">
	<g>
		<path d="M647.5,461.3v-69.9c-7.6,1.1-15.3,1.6-23.1,1.6c-77.5,0-142.3-54.5-158.1-127.2h135v-69.4h-135
			c15.9-72.7,80.7-127.2,158.1-127.2c7.9,0,15.6,0.6,23.1,1.6V1.1C639.9,0.4,632.2,0,624.4,0C496.6,0,393.1,103.5,393.1,231.2
			s103.5,231.2,231.2,231.2C632.2,462.5,639.9,462.1,647.5,461.3z"/>
		<path d="M0,231.2C0,359,103.5,462.5,231.2,462.5c8.3,0,16.6-0.4,24.7-1.3v-69.9c-8,1.2-16.3,1.9-24.7,1.9
			c-89.4,0-161.9-72.5-161.9-161.9S141.8,69.4,231.2,69.4c8.4,0,16.6,0.6,24.7,1.9V1.3C247.8,0.4,239.6,0,231.2,0
			C103.5,0,0,103.5,0,231.2z"/>
	</g>
</g>
<g id="Layer_3">
</g>
<g>
	<path d="M195.4,712.7v27.4H92c1.1-10.4,4.5-20.2,10.1-29.5c5.6-9.3,16.7-21.6,33.2-36.9c13.3-12.4,21.5-20.8,24.5-25.2
		c4.1-6.1,6.1-12.1,6.1-18.1c0-6.6-1.8-11.6-5.3-15.2c-3.5-3.5-8.4-5.3-14.6-5.3c-6.2,0-11.1,1.9-14.7,5.6
		c-3.6,3.7-5.7,9.9-6.3,18.5l-29.4-2.9c1.7-16.2,7.2-27.9,16.5-35c9.2-7.1,20.8-10.6,34.6-10.6c15.2,0,27.1,4.1,35.8,12.3
		c8.7,8.2,13,18.4,13,30.6c0,6.9-1.2,13.5-3.7,19.8c-2.5,6.3-6.4,12.8-11.8,19.7c-3.6,4.6-10,11.1-19.3,19.6
		c-9.3,8.5-15.2,14.2-17.7,17c-2.5,2.8-4.5,5.5-6,8.2H195.4z"/>
	<path d="M215.4,615.7v-27.4h100.9v21.4c-8.3,8.2-16.8,19.9-25.4,35.3s-15.2,31.6-19.7,48.9c-4.5,17.3-6.7,32.7-6.7,46.2h-28.5
		c0.5-21.3,4.9-43,13.2-65.1c8.3-22.1,19.4-41.9,33.2-59.3H215.4z"/>
	<path d="M335.6,704.5l28.6-3.2c0.7,5.8,2.5,10.1,5.5,12.9c2.9,2.8,6.8,4.2,11.7,4.2c6.1,0,11.3-2.8,15.5-8.4
		c4.3-5.6,7-17.2,8.2-34.9c-7.4,8.6-16.7,12.9-27.8,12.9c-12.1,0-22.6-4.7-31.3-14c-8.8-9.3-13.2-21.5-13.2-36.5
		c0-15.6,4.6-28.2,13.9-37.7c9.3-9.6,21.1-14.3,35.4-14.3c15.6,0,28.4,6,38.4,18.1c10,12.1,15,31.9,15,59.6
		c0,28.1-5.2,48.4-15.6,60.9c-10.4,12.5-24,18.7-40.7,18.7c-12,0-21.8-3.2-29.2-9.6C342.5,726.8,337.7,717.3,335.6,704.5z
		 M402.4,640.1c0-9.5-2.2-16.9-6.6-22.2c-4.4-5.2-9.4-7.9-15.2-7.9c-5.5,0-10,2.2-13.6,6.5c-3.6,4.3-5.4,11.4-5.4,21.2
		c0,9.9,2,17.2,5.9,21.9c3.9,4.7,8.8,7,14.7,7c5.7,0,10.4-2.2,14.3-6.7C400.4,655.3,402.4,648.7,402.4,640.1z"/>
	<path d="M454.6,615.7v-27.4h100.9v21.4c-8.3,8.2-16.8,19.9-25.4,35.3s-15.2,31.6-19.7,48.9c-4.5,17.3-6.7,32.7-6.7,46.2h-28.5
		c0.5-21.3,4.9-43,13.2-65.1c8.3-22.1,19.4-41.9,33.2-59.3H454.6z"/>
</g>
</svg>
