<?xml version="1.0" encoding="utf-8"?>
<!-- Generator: Adobe Illustrator 27.3.1, SVG Export Plug-In . SVG Version: 6.00 Build 0)  -->
<svg version="1.1" id="Layer_1" xmlns="http://www.w3.org/2000/svg" xmlns:xlink="http://www.w3.org/1999/xlink" x="0px" y="0px"
	 width="246.3px" height="81.8px" viewBox="0 0 246.3 81.8" style="enable-background:new 0 0 246.3 81.8;" xml:space="preserve">
<g>
	<path d="M123.2,0c40.4,0,80.9,0,121.3,0c1.8,0,1.8,0,1.8,1.9c0,15.3,0,30.7,0,46c0,11,0,21.9,0.1,32.9c0,0.8-0.2,1-1,1
		c-81.3,0-162.6,0-243.9,0c-1.1,0-1.4-0.2-1.4-1.3c0-26.5,0-53,0-79.6C0,0.2,0.2,0,0.9,0c26.1,0,52.3,0,78.4,0C94,0,108.6,0,123.2,0
		z M62.3,78.4C62.3,78.4,62.3,78.4,62.3,78.4c19.3,0,38.7,0,58,0c1,0,1.2-0.3,1.2-1.2c0-23.6,0-47.2,0-70.9c0-3.1,0-3.1-3-3.1
		c0,0,0,0-0.1,0c-20.5,0-40.9,0-61.4,0c-17.6,0-35.2,0-52.7,0c-0.9,0-1.1,0.2-1.1,1.1c0,24.4,0,48.7,0,73.1c0,0.8,0.2,1,1,1
		C23.5,78.4,42.9,78.4,62.3,78.4z M183.8,78.4C183.8,78.4,183.8,78.4,183.8,78.4c19.3,0,38.7,0,58,0c1,0,1.1-0.3,1.1-1.1
		c0-9.7,0-19.5,0-29.2c0-14.7,0-29.4,0-44.1c0-0.3,0.1-0.7-0.5-0.7c-37.1,0-74.3,0-111.4,0c-1.9,0-3.7,0-5.6,0
		c-0.6,0-0.7,0.2-0.7,0.8c0,24.5,0,49.1,0,73.6c0,0.5,0.1,0.7,0.7,0.7C144.9,78.4,164.3,78.4,183.8,78.4z"/>
	<path d="M33.3,40.9c0-5.3,0-10.5,0-15.8c0-0.5,0.2-0.6,0.6-0.6c7.7,0,15.5,0,23.2,0c0.4,0,0.6,0.1,0.6,0.6c0,1.5,0,3,0,4.5
		c0,0.6-0.4,0.6-0.8,0.6c-5.5,0-11,0-16.5,0c-0.5,0-0.6,0.1-0.6,0.7c0,2,0,4,0,5.9c0,0.6,0.2,0.6,0.7,0.6c5.1,0,10.1,0,15.2,0
		c0.7,0,0.9,0.2,0.9,0.9c-0.1,1.4,0,2.7,0,4.1c0,0.6-0.2,0.8-0.8,0.8c-5.1,0-10.1,0-15.2,0c-0.5,0-0.7,0.1-0.7,0.7
		c0,2.5,0,5-0.1,7.4c0,0.5,0.3,0.5,0.6,0.5c5.7,0,11.4,0,17.1,0c0.7,0,0.9,0.2,0.9,0.9c0,1.4,0,2.7,0,4.1c0,0.5-0.1,0.8-0.7,0.8
		c-8,0-15.9,0-23.9,0c-0.5,0-0.5-0.3-0.5-0.7c0-4.9,0-9.9,0-14.8C33.3,41.5,33.3,41.2,33.3,40.9C33.3,40.9,33.3,40.9,33.3,40.9z"/>
	<path d="M69.7,41.4c-0.1,2.2-0.1,4.4,0.9,6.5c1,2.1,3.5,4.1,5.6,4.2c4.1,0.2,6-0.9,7.8-4.5c0.3-0.6,0.4-1.1,0.5-1.7
		c0.1-0.5,0.3-0.7,0.8-0.5c1.7,0.6,3.4,1.1,5.1,1.6c0.7,0.2,0.8,0.5,0.6,1.2c-1.3,3.8-3.4,6.9-7.3,8.5c-4.5,1.8-9,1.9-13.4-0.6
		c-4.6-2.6-6.9-6.8-7.5-11.9c-0.5-4.3-0.1-8.5,1.9-12.3c2.3-4.5,6.1-7,11.1-7.5c2.8-0.3,5.6-0.1,8.2,1c3.7,1.4,5.7,4.3,6.9,7.9
		c0.1,0.3,0,0.4-0.3,0.5c-1.9,0.5-3.8,0.9-5.6,1.4c-0.5,0.1-0.5-0.2-0.7-0.5c-0.6-1.9-1.7-3.6-3.7-4.3c-5-1.6-9.6,0.3-10.8,6.1
		C69.6,38,69.8,39.7,69.7,41.4z"/>
	<path d="M139.4,40.8c0-5.2,0-10.5,0-15.7c0-0.5,0.1-0.6,0.6-0.6c4.6,0,9.3-0.1,13.9,0.1c2.4,0.1,4.9,0.1,7.3,1
		c3.2,1.2,5,4.8,5.1,7.7c0,2.4-0.5,4.6-2.1,6.4c-1.6,1.8-3.8,2.4-5.9,3.1c-0.1,0-0.3,0.1-0.4,0.1c0.1,0.1,0.2,0.3,0.3,0.3
		c2.8,1.5,4.6,4,6.2,6.6c1.4,2.3,2.8,4.6,4.4,6.7c0.1,0.2,0.4,0.3,0.2,0.5c-0.1,0.1-0.4,0.2-0.6,0.2c-2.3,0-4.6,0-6.9,0
		c-0.3,0-0.4-0.1-0.6-0.3c-2.2-3.3-4.4-6.5-6.6-9.8c-1.8-2.8-4.3-4-7.6-3.6c-0.6,0.1-0.4,0.4-0.4,0.7c0,4,0,8,0,12.1
		c0,0.8-0.1,1-1,1c-1.7-0.1-3.5,0-5.2,0c-0.6,0-0.8-0.1-0.8-0.8C139.4,51.3,139.4,46.1,139.4,40.8z M151.4,30.1
		C151.4,30.1,151.4,30.1,151.4,30.1c-1.5-0.1-3,0-4.5-0.1c-0.5,0-0.7,0.1-0.7,0.6c0,2.4,0,4.9,0,7.3c0,0.3,0.1,0.5,0.4,0.4
		c3-0.2,6,0.1,9-0.2c2.4-0.2,3.8-1.6,3.9-4.2c0-2.1-1.5-3.8-3.7-3.9C154.4,30.1,152.9,30.1,151.4,30.1z"/>
	<path d="M172.7,40.9c0-5.2,0-10.5,0-15.7c0-0.5,0.1-0.6,0.6-0.6c7.8,0,15.7,0,23.5,0c0.5,0,0.6,0.1,0.6,0.6c-0.1,1.4,0,2.8,0,4.2
		c0,0.6-0.2,0.8-0.8,0.8c-5.6,0-11.2,0-16.9-0.1c-0.4,0-0.5,0.1-0.5,0.5c0,2.1,0,4.2,0,6.3c0,0.5,0.3,0.5,0.6,0.5
		c5.1,0,10.2,0,15.3,0c0.7,0,1,0.2,1,0.9c0,1.3,0,2.7,0,4c0,0.6-0.2,0.8-0.8,0.8c-5.1,0-10.3,0-15.4,0c-0.5,0-0.7,0.1-0.7,0.6
		c0,2.4,0,4.8,0,7.2c0,0.6,0.1,0.7,0.7,0.7c5.7,0,11.5,0,17.2,0c0.6,0,0.7,0.2,0.7,0.7c0,1.4,0,2.8,0,4.2c0,0.5-0.2,0.7-0.7,0.7
		c-8,0-15.9,0-23.9,0c-0.5,0-0.6-0.2-0.6-0.6C172.7,51.4,172.7,46.1,172.7,40.9z"/>
	<path d="M203.1,40.8c0-5.2,0-10.5,0-15.7c0-0.5,0.1-0.7,0.6-0.7c3.9,0,7.7-0.1,11.6,0.1c2.2,0.1,4.4,0.1,6.6,0.7
		c2.8,0.8,4.8,2.6,5.7,5.4c1,3.3,1.1,6.5-0.7,9.6c-1.9,3.1-4.8,4.2-8.1,4.6c-2.8,0.4-5.7,0.3-8.6,0.2c-0.5,0-0.4,0.3-0.4,0.6
		c0,3.6,0,7.3,0,10.9c0,0.6-0.2,0.8-0.7,0.7c-1.7,0-3.5,0-5.2,0c-0.5,0-0.6-0.2-0.6-0.6C203.1,51.4,203.1,46.1,203.1,40.8z
		 M209.7,34.7c0,1.4,0,2.8,0,4.2c0,0.3,0,0.5,0.4,0.5c2.3-0.1,4.6,0,6.9-0.2c2.3-0.2,4.1-1.6,4.5-3.3c0.9-3.7-2.5-6-5.2-5.9
		c-2,0.1-4.1,0.1-6.1,0c-0.5,0-0.4,0.2-0.4,0.5C209.7,32,209.7,33.4,209.7,34.7z"/>
</g>
</svg>
