<?xml version="1.0" encoding="UTF-8"?>
<svg width="200" height="200" version="1.1" viewBox="0 0 200 200" xml:space="preserve"
  xmlns="http://www.w3.org/2000/svg">
  <g fill="none" stroke="transparent" stroke-width="3">
    <path d="m0 16v-16h16" />
    <path d="m200 16v-16h-16" />
    <path d="m0 184v16h16" />
    <path d="m200 184v16h-16" />
  </g>
  <rect x="17.441" y="49.978" width="164.88" height="101.32" fill="none" stroke="#000" stroke-width="5" />
  <path
    d="m112.48 73.768-0.06641 53.457 22.143-0.06836c16.778 0 22.688-12.733 22.688-26.66 0-14.082-5.8998-26.729-22.688-26.729h-22.076zm-70.697 0.19922v53.314h11.238v-53.314h-11.238zm15.715 0 18.572 53.314h0.79297 11.109 0.79297l18.572-53.314h-11.902l-13.018 37.369-13.018-37.369h-11.902zm65.986 9.2949h10.938c8.3176 0 11.24 8.2178 11.24 17.367 0 9.0486-1.7029 17.322-11.24 17.322l-10.971 0.04297 0.0332-34.732z"
    fill="#000" fill-rule="evenodd" />
</svg>