<?xml version="1.0" encoding="UTF-8"?>
<svg width="200" height="200" version="1.1" xml:space="preserve" xmlns="http://www.w3.org/2000/svg">
  <g fill="none">
    <g stroke="transparent" stroke-width="3">
      <path d="m0 16v-16h16" />
      <path d="m200 16v-16h-16" />
      <path d="m0 184v16h16" />
      <path d="m200 184v16h-16" />
    </g>
    <path
      d="m56.843 31.177h86.313a32.332 32.332 0 0 1 28 48.497l-43.157 74.75a32.332 32.332 0 0 1-56 0l-43.157-74.75a32.332 32.332 0 0 1 28-48.497z"
      stroke="#000" stroke-width="5" />
  </g>
  <path
    d="m43.496 62.986h5.4141v21.252h12.832v4.6582h-18.246zm38.06 20.584h-9.5449l-1.793 5.3262h-5.6602l9.2461-25.91h6.1172l9.1758 25.91h-5.8711zm-1.5117-4.4648-3.2344-10.195-3.3398 10.195zm29.412-16.119v4.5879h-7.752v21.322h-5.4492v-21.322h-7.7871v-4.5879zm22.099 14.59h-12.586v6.6621h14.344v4.6582h-19.635v-25.91h19.002v4.5879h-13.711v5.502h12.586zm27.707 11.32h-6.5742l-4.9219-8.8242-5.2031 8.8242h-6.293l8.332-13.201-7.9277-12.709h6.4688l4.623 8.4199 4.7461-8.4199h6.2578l-7.9277 12.498z"
    fill-rule="evenodd" stroke-dashoffset=".5" stroke-linecap="square" stroke-width="5" aria-label="LATEX" />
</svg>