<?xml version="1.0" encoding="utf-8"?>
<!-- Generator: Adobe Illustrator 27.3.1, SVG Export Plug-In . SVG Version: 6.00 Build 0)  -->
<svg version="1.1" id="Layer_1" xmlns="http://www.w3.org/2000/svg" xmlns:xlink="http://www.w3.org/1999/xlink" x="0px" y="0px"
	 width="624px" height="394px" viewBox="0 0 624 394" style="enable-background:new 0 0 624 394;" xml:space="preserve">
<g>
	<path d="M0,0v394h624V0H0z M599,369H25V25h574V369z"/>
	<polygon points="200.4,258.4 118,258.4 118,102.7 81.1,102.7 81.1,291.3 200.4,291.3 	"/>
	<path d="M240.5,268.1c6.6,8.6,14.9,15.3,24.9,19.9c10.1,4.7,21.9,7,35.6,7c25.5,0,45.2-8.5,59.1-25.5s20.9-41.2,20.9-72.6
		c0-14.7-1.6-28.1-4.8-40.1c-3.2-12-8.2-22.4-14.8-31c-6.6-8.6-15-15.3-25.1-19.9c-10.1-4.7-21.8-7-35.3-7
		c-25.7,0-45.4,8.5-59.3,25.5c-13.8,17-20.7,41.2-20.7,72.6c0,14.7,1.6,28.1,4.8,40.1C229,249.2,233.9,259.5,240.5,268.1z
		 M270.5,147.6c7.2-10.5,17.3-15.8,30.4-15.8c7.5,0,13.9,1.7,19.1,5s9.4,7.9,12.7,13.9c3.2,5.9,5.6,12.8,7.1,20.7
		c1.5,7.9,2.3,16.4,2.3,25.6c0,23-3.6,39.6-10.8,49.8c-7.2,10.2-17.3,15.4-30.4,15.4c-7.2,0-13.4-1.6-18.6-4.8
		c-5.2-3.2-9.5-7.7-12.8-13.5c-3.3-5.7-5.8-12.6-7.4-20.6s-2.4-16.7-2.4-26.3C259.7,174.6,263.3,158.1,270.5,147.6z"/>
	<polygon points="455,291.3 491.9,291.3 491.9,135.6 546.9,135.6 546.9,102.7 399.8,102.7 399.8,135.6 455,135.6 	"/>
</g>
</svg>
