<?xml version="1.0" encoding="utf-8"?>
<!-- Generator: Adobe Illustrator 27.3.1, SVG Export Plug-In . SVG Version: 6.00 Build 0)  -->
<svg version="1.1" id="Layer_1" xmlns="http://www.w3.org/2000/svg" xmlns:xlink="http://www.w3.org/1999/xlink" x="0px" y="0px"
	 width="178.5px" height="116.1px" viewBox="0 0 178.5 116.1" style="enable-background:new 0 0 178.5 116.1;" xml:space="preserve"
	>
<g>
	<path d="M178.5,116.1c-59.5,0-119,0-178.5,0C0,77.4,0,38.8,0,0c59.5,0,119,0,178.5,0C178.5,38.7,178.5,77.3,178.5,116.1z
		 M173.1,110.8c0-35.2,0-70.3,0-105.5c-56,0-111.9,0-167.9,0c0,35.2,0,70.3,0,105.5C61.2,110.8,117.1,110.8,173.1,110.8z"/>
	<path d="M33,92.4c-4.4,0-8.6,0-12.9,0c0-22.9,0-45.8,0-68.9c6.9,0,13.7,0,20.7,0C45,39.2,49.1,54.8,53.4,71
		c4.3-16.2,8.4-31.9,12.5-47.5c7,0,13.8,0,20.7,0c0,23,0,45.9,0,69c-4.2,0-8.3,0-12.6,0c0-17.9,0-35.7,0-53.5
		c-0.1,0-0.3-0.1-0.4-0.1c-4.5,17.8-9,35.6-13.5,53.5c-4.5,0-8.8,0-13.4,0c-4.5-17.8-8.9-35.5-13.4-53.3c-0.1,0-0.2,0-0.3,0
		C33,56.8,33,74.5,33,92.4z"/>
	<path d="M100.7,92.4c0-23.1,0-45.9,0-68.9c1.7,0,3.2,0,4.7,0c9.3,0.1,18.7,0,28,0.4c13.1,0.6,20.9,10,23.5,21
		c2.6,11.1,2.6,22.1-2.3,32.7c-4.4,9.5-12.2,14.2-22.3,14.7c-10.1,0.5-20.2,0.2-30.4,0.3C101.5,92.5,101.1,92.4,100.7,92.4z
		 M114.5,80.9c5.2,0,10.2,0.2,15.3,0c7.4-0.3,11.3-3.3,13.1-10.5c2-7.8,1.9-15.7,0.2-23.5c-1.1-5.1-3.8-9.6-9.2-10.6
		c-6.3-1.1-12.9-1.1-19.4-1.6C114.5,50.5,114.5,65.7,114.5,80.9z"/>
</g>
</svg>
