<?xml version="1.0" encoding="utf-8"?>
<!-- Generator: Adobe Illustrator 27.3.1, SVG Export Plug-In . SVG Version: 6.00 Build 0)  -->
<svg version="1.1" id="Layer_1" xmlns="http://www.w3.org/2000/svg" xmlns:xlink="http://www.w3.org/1999/xlink" x="0px" y="0px"
	 width="800px" height="588.9px" viewBox="0 0 800 588.9" style="enable-background:new 0 0 800 588.9;" xml:space="preserve">
<g>
	<path d="M0,307.3C0,221,0,134.7,0.2,48.5c0-0.9,2.8-2.8,3.6-2.5c28.1,11,57.1,17.1,87.4,18.5c46.9,2.1,91-8.1,132.7-29.4
		c15.6-8,30.3-18.3,46.6-24.4c15.1-5.6,31.6-8.5,47.7-10C345.9-2,372.6,3.9,398.3,15c3.5,1.5,9.4-2.9,14.2-3.9
		c17.6-3.7,35-8.9,52.8-10.4c38.9-3.3,73.2,10.5,105.8,31.1c25.6,16.2,54.5,25.2,84.5,29.4c15.5,2.2,31.2,3.7,46.8,3.6
		c32.3-0.2,63.6-6.7,93.7-18.7c0.8-0.3,3.7,1.5,3.7,2.3c0.2,172.7,0.2,345.4,0,518.1c0,1.7-1.9,4.3-3.5,4.9
		c-34,12.5-69.1,18.4-105.3,17.5c-40.8-1-79.9-9.9-116.7-27.7c-20.4-9.9-39.7-22.8-61-30.2c-34.9-12.2-70.4-9.1-103.6,7.8
		c-9.6,4.9-15.8,1.5-23.6-1.8c-51.3-21.5-98.8-14.5-145.5,15.6c-20.5,13.2-45.3,21.7-69.3,27.2c-26.6,6.1-54.8,9.9-81.9,8.3
		C60,586.1,30.9,577.1,1.6,571c-0.8-0.2-1.5-2.5-1.5-3.8C0,480.5,0,393.9,0,307.3z M25.6,316.2c0,77.5,0,155.1,0.1,232.7
		c0,1.3,1.1,3.5,2.2,3.8c35.7,10.4,72,13.1,108.9,8.1c36.5-4.9,70.9-16.3,101.8-36.2c24.6-15.9,51.3-25.5,79.9-25.5
		c22,0.1,44,5.8,66,8.8c0.9,0.1,2.8-1,2.8-1.5c0.1-155.3,0.1-310.6,0.1-465.9c0-1-0.6-2.5-1.4-2.8c-19.4-8.2-39.5-12.4-60.8-12
		c-30,0.6-56.2,10.9-81.5,26.7c-41,25.6-86.9,37.5-134.9,37.5c-26.8,0-53.5-5.9-80.3-9c-0.9-0.1-2.8,1.5-2.8,2.3
		C25.6,160.9,25.6,238.6,25.6,316.2z M774.4,316.5c0-77.5,0-155.1-0.2-232.6c0-0.9-2.3-2.8-3.4-2.7c-23.6,3-47,7.7-70.7,8.9
		c-18,0.9-36.3-1.8-54.2-4.6c-31.4-4.9-61.9-14.4-88.3-32c-42.7-28.3-87.1-35.3-135.5-19.2c-6.7,2.2-9.4,5.1-9.4,12.8
		c0.4,92.4,0.2,184.8,0.2,277.1c0,60.6,0,121.2,0.1,181.7c0,0.8,1.1,2.5,1.2,2.4c25.6-9.1,52-13.2,78.6-8.2
		c19.1,3.5,39.6,7.7,55.7,17.6c42.3,26,87,43.9,136.6,44.7c27.8,0.5,55.8-5.6,83.7-9.1c2-0.3,5.2-4.4,5.2-6.7
		C774.5,470,774.4,393.2,774.4,316.5z"/>
	<path d="M602.7,451c-28.2,0-56.3,0-84.5-0.1c-1,0-3-1.9-3-2.9c-0.3-22.5-0.2-22.5,22.3-22.5c18.5,0,18.5,0,18.5-18.5
		c0-38.3,0-76.6-0.1-114.9c0-1.1-1.9-3-2.9-3c-11.6-0.2-23.2-0.1-34.8-0.3c-1,0-2.9-2-2.9-3c-0.2-22.5-0.2-22.5,22.3-22.5
		c36.3,0,72.6,0,108.9,0.2c1.4,0,3.9,2.5,3.9,3.8c0.2,51.7,0.2,103.4,0.3,155.2c0,1,1.9,3,3,3c11.4,0.2,22.8,0.1,34.2,0.3
		c1,0,2.9,1.8,2.9,2.8c0.3,22.7,0.3,22.7-22.4,22.7C646.4,451,624.5,451,602.7,451z"/>
	<path d="M555.9,185.5c0-26.7,21.2-47.4,48.7-47.4c24.2,0,45.7,21.7,45.6,47.2c-0.1,27-21.2,47-47,47.1
		C577,232.6,555.9,210.9,555.9,185.5z"/>
</g>
</svg>
