<?xml version="1.0" encoding="UTF-8"?>
<svg id="Layer_1" xmlns="http://www.w3.org/2000/svg" version="1.1" viewBox="0 0 200.2 132">
  <!-- Generator: Adobe Illustrator 29.5.1, SVG Export Plug-In . SVG Version: 2.1.0 Build 141)  -->
  <path d="M196.4,129.7H2.6V3.9h193.9v125.8ZM8.6,123.7h181.9V9.9H8.6v113.8Z"/>
  <g>
    <path d="M30,37.1h12.1v32.6c0,5.2.1,8.5.5,10,.5,2.5,1.8,4.4,3.7,5.9,2,1.5,4.6,2.2,8,2.2s6-.7,7.8-2.1c1.7-1.4,2.8-3.1,3.2-5.2.4-2.1.5-5.5.5-10.2v-33.3h12.1v31.6c0,7.2-.3,12.3-1,15.3s-1.9,5.5-3.6,7.5-4.1,3.7-7.1,4.9c-3,1.2-6.8,1.8-11.6,1.8s-10.1-.7-13.1-2c-3-1.3-5.3-3-7-5.2s-2.9-4.3-3.4-6.7c-.8-3.4-1.2-8.5-1.2-15.3v-32.1Z"/>
    <path d="M90.7,37.1h22.2c5,0,8.8.4,11.4,1.1,3.5,1,6.5,2.9,9.1,5.5,2.5,2.7,4.4,5.9,5.7,9.7,1.3,3.8,2,8.6,2,14.2s-.6,9.2-1.8,12.8c-1.5,4.4-3.7,7.9-6.4,10.6-2.1,2.1-4.9,3.7-8.5,4.8-2.7.8-6.3,1.3-10.7,1.3h-22.8v-60.1ZM102.8,47.3v39.8h9.1c3.4,0,5.8-.2,7.3-.6,2-.5,3.6-1.3,4.9-2.5s2.4-3.1,3.2-5.8,1.2-6.4,1.2-11-.4-8.2-1.2-10.7c-.8-2.5-2-4.4-3.4-5.8s-3.3-2.3-5.6-2.8c-1.7-.4-5-.6-10-.6h-5.5Z"/>
    <path d="M151,97.2v-60.1h12.1v60.1h-12.1Z"/>
  </g>
</svg>