<?xml version="1.0" encoding="UTF-8"?>
<svg width="200" height="200" version="1.1" viewBox="0 0 200 200" xml:space="preserve"
  xmlns="http://www.w3.org/2000/svg">
  <g fill="none" stroke="transparent" stroke-width="3">
    <path d="m0 16v-16h16" />
    <path d="m200 16v-16h-16" />
    <path d="m0 184v16h16" />
    <path d="m200 184v16h-16" />
  </g>
  <path
    d="m59.587 127.97c-1.0655-0.0612-4.0557-0.36872-4.6514-0.47841-1.0416-0.19179-2.7456-0.57409-3.2888-0.73789-2.1011-0.63356-3.9727-1.6107-5.6581-2.9541-0.62779-0.50038-1.9983-1.8849-2.4073-2.4318-1.0297-1.377-1.9637-3.0006-2.4-4.1718-0.27637-0.74196-0.57014-2.0549-0.86022-3.8446-0.20228-1.248-0.31476-2.5078-0.52756-5.9093-0.30238-11.673-0.15842-35.035-0.15842-35.035l11.076 0.0065s-0.03034 28.964 0.21483 36.073c0.05615 1.628 0.09341 2.0036 0.26396 2.661 0.38806 1.4959 0.8456 2.47 1.7264 3.6754 1.125 1.5396 2.6384 2.6082 4.6296 3.2687 0.78214 0.25949 1.1285 0.33923 2.0172 0.46434 0.85317 0.12012 3.3326 0.1206 4.1768 8.1e-4 1.6748-0.23766 2.7705-0.56523 3.9395-1.1777 0.72636-0.38057 1.1709-0.7079 1.8736-1.3796 0.69728-0.66652 1.2281-1.3063 1.488-1.7936 0.28871-0.54124 0.62048-1.72 0.78818-2.8004 0.59158-13.008 0.36702-39.087 0.36702-39.087l11.027-0.01491s0.30448 24.417-0.19075 36.61c-0.19776 4.5333-0.61208 6.9503-1.6354 9.5402-0.35195 0.89077-1.0027 1.9873-1.6371 2.7585-1.3135 1.5967-1.4318 1.7244-1.9864 2.1429-1.3623 1.0281-2.3407 1.7081-2.7729 1.9271-0.31878 0.16154-1.4882 0.65276-2.694 1.1316-1.0258 0.40738-1.1058 0.42802-3.4648 0.89395-1.4864 0.29358-2.5946 0.46642-3.7971 0.59219zm35.245-0.82969v-54.821l9.0537 7e-3c7.7452 0.58284 16.253-1.1014 23.716 1.8305 1.7714 0.75122 3.2961 1.7642 5.4648 3.6307 1.0568 0.90958 2.2333 2.2883 3.1129 3.6482 0.40935 0.63284 1.4909 2.4994 1.7583 3.0344 0.71015 1.421 1.2619 3.1489 1.8339 5.7431 0.0886 0.40199 0.49815 2.8316 0.71603 4.248 0.17893 1.1633 0.25208 3.4224 0.21745 6.7161-0.0266 2.5314-0.0422 2.9758-0.12433 3.5361-0.082 0.55951-0.18757 1.3149-0.49643 3.5516-0.19222 1.392-0.34634 2.0198-0.89928 3.6629-0.61865 1.8384-0.71278 2.0744-1.3252 3.3225-0.98799 2.0136-1.3037 2.553-2.0135 3.4411-0.84752 1.0603-1.7135 2.0968-2.0744 2.4827-0.15663 0.16749-0.58381 0.55202-0.94928 0.85451-0.36547 0.30248-0.83536 0.69117-1.0442 0.86375-0.71704 0.59253-1.2098 0.89811-2.3732 1.4717-4.2086 2.0749-7.6188 2.5135-16.351 2.7561-6.0741 0.0748-18.222 0.0204-18.222 0.0204zm18.389-9.1848c3.0914-0.0616 4.6655-0.15883 6.2177-0.38411 1.7022-0.24703 3.396-0.78202 4.4374-1.4014 0.37298-0.22187 1.1194-0.79819 1.4886-1.1494 0.27498-0.26158 0.93059-1.071 1.2366-1.5267 2.0654-3.0758 2.5417-8.4863 2.6457-10.276 0.0704-1.211 0.0707-4.7964 4.9e-4 -6.2652-0.15519-3.2477-0.33072-4.6131-0.79582-6.1902-0.52388-1.7764-0.9223-2.6652-1.8059-4.0284-0.83208-1.2837-1.416-1.9495-2.1619-2.4652-0.73114-0.50544-2.7272-1.5274-3.3958-1.7386-1.0046-0.31734-3.0923-0.58909-5.3366-0.69464-1.5695-0.07381-9.8166-0.10473-9.8166-0.10473v36.201zm36.638 9.2117-3e-3 -54.743 11.045-0.0029 0.0327 54.801z"
    fill="#000" />
  <rect x="17.88" y="47.961" width="164.54" height="103.66" fill="none" stroke="#000" stroke-width="5" />
</svg>