<svg xmlns="http://www.w3.org/2000/svg" width="1280" height="640" viewBox="0 0 1280 640" font-family="'Helvetica Neue', Helvetica, Arial, sans-serif">
  <rect width="1280" height="640" fill="#ffffff"/>
  <rect x="0" y="0" width="1280" height="8" fill="#0b8f88"/>
  <text x="640" y="172" text-anchor="middle" fill="#0b8f88" font-size="24" font-weight="700" letter-spacing="4">ISO 15223-1:2021</text>
  <text x="640" y="256" text-anchor="middle" fill="#0f172a" font-size="76" font-weight="800" letter-spacing="-1">Medical Device Symbols</text>
  <text x="640" y="316" text-anchor="middle" fill="#475569" font-size="30" font-weight="400">React components for medical device labeling</text>
  <text x="640" y="366" text-anchor="middle" fill="#64748b" font-size="20" font-weight="500">EU MDR &#183; IVDR &#183; FDA &#183; TypeScript &#183; zero runtime dependencies</text>
  <g>
    <svg x="102" y="440" width="96" height="96" viewBox="0 0 200 200" fill="currentColor" color="#0f172a">
      <g fill="none" stroke="transparent" stroke-width="3">
    <path d="M0,16V0h16" />
    <path d="M200,16V0h-16" />
    <path d="M0,184v16h16" />
    <path d="M200,184v16h-16" />
  </g>
  <polygon fill="none" stroke="currentColor" stroke-miterlimit="10" stroke-width="6"
    points="100 35.7 25.7 164.3 174.3 164.3 100 35.7" />
  <rect x="94.2" y="63.2" width="11.7" height="67.9" fill="currentColor" />
  <circle cx="100" cy="146.8" r="8" fill="currentColor" />
    </svg>
    <svg x="242" y="440" width="96" height="96" viewBox="0 0 200 200" fill="currentColor" color="#0f172a">
      <g fill="none" stroke="transparent" stroke-width="3">
    <path d="M0,16V0h16" />
    <path d="M200,16V0h-16" />
    <path d="M0,184v16h16" />
    <path d="M200,184v16h-16" />
  </g>
  <g fill="currentColor" fill-rule="evenodd">
    <path
      d="M82.5,158c-1.9.2-3.9.3-5.8.3-32.2,0-58.3-26.1-58.3-58.3s26.1-58.3,58.3-58.3c1.9,0,3.9,.3,5.8,.3v17.5c-1.9-.2-3.9-.3-5.8-.3-22.6,0-40.8,18.3-40.8,40.8s18.3,40.8,40.8,40.8c1.9,0,3.9,0,5.8-.3v17.5Z" />
    <path
      d="M181.7,158c-1.9.2-3.9.3-5.8.3-32.2,0-58.3-26.1-58.3-58.3s26.1-58.3,58.3-58.3c1.9,0,3.9,.3,5.8,.3v17.5c-1.9-.2-3.9-.3-5.8-.3-19.2,0-35.8,13.3-39.9,32.1h34.1v17.5h-34.1c4.1,18.7,20.7,32.1,39.9,32.1,1.9,0,3.9,0,5.8-.3v17.5Z" />
  </g>
    </svg>
    <svg x="382" y="440" width="96" height="96" viewBox="0 0 200 200" fill="currentColor" color="#0f172a">
      <g fill="none" stroke="transparent" stroke-width="3">
    <path d="m0 16v-16h16" />
    <path d="m200 16v-16h-16" />
    <path d="m0 184v16h16" />
    <path d="m200 184v16h-16" />
  </g>
  <path
    d="m28.814 118.25 21.553-37.331 16.605 28.761 16.605-28.761 16.605 28.761 16.605-28.761 16.687 28.903v-75.713h37.712v131.78h-142.37z" />
    </svg>
    <svg x="522" y="440" width="96" height="96" viewBox="0 0 200 200" fill="currentColor" color="#0f172a">
      <g fill="none" stroke="transparent" stroke-width="3">
    <path d="m0 16v-16h16" />
    <path d="m200 16v-16h-16" />
    <path d="m0 184v16h16" />
    <path d="m200 184v16h-16" />
  </g>
  <path
    d="m43.668 85.674c-3.2693 0-5.7482 0.76249-7.4355 2.2891-1.6874 1.5266-2.5312 3.4446-2.5312 5.752 0 2.5288 0.87317 4.3875 2.6191 5.5762 1.0312 0.71084 2.8947 1.3686 5.5898 1.9746l2.7422 0.61133c1.6054 0.3496 2.7833 0.75255 3.5332 1.207 0.74995 0.46613 1.125 1.1239 1.125 1.9746 0 1.4567-0.75597 2.4542-2.2676 2.9902-0.79682 0.27967-1.8341 0.41797-3.1113 0.41797-2.1327 0-3.6387-0.5294-4.5176-1.5898-0.48044-0.58266-0.80274-1.4617-0.9668-2.6387h-5.168c0 2.6802 0.96693 4.7879 2.9004 6.3262 1.9335 1.5266 4.5881 2.291 7.9629 2.291 3.3045 0 5.8575-0.77629 7.6621-2.3262 1.8163-1.5615 2.7246-3.5191 2.7246-5.873 0-2.2957-0.77355-4.0478-2.3203-5.2598-0.99602-0.78077-2.4708-1.405-4.4277-1.8711l-4.4648-1.0664c-1.7225-0.40786-2.8477-0.76342-3.375-1.0664-0.82025-0.45448-1.2305-1.1419-1.2305-2.0625-1e-6 -1.0022 0.41608-1.7824 1.248-2.3418 0.83197-0.55936 1.9454-0.83984 3.3398-0.83984 1.2538-1e-6 2.3028 0.21531 3.1465 0.64648 1.2655 0.65258 1.9453 1.7548 2.0391 3.3047h5.2012c-0.093743-2.7385-1.1076-4.8245-3.041-6.2578-1.9217-1.445-4.2463-2.168-6.9766-2.168zm12.936 0.75195v4.5625h6.8906v21.203h4.8203v-21.203h6.8594v-4.5625h-18.57zm21.912 0v25.766h17.375v-4.6328h-12.693v-6.625h11.137v-4.4746h-11.137v-5.4707h12.133v-4.5625h-16.814zm20.064 0v25.766h4.6816v-10.104h4.9453c1.4102 0 2.3708 0.27261 2.8789 0.82031 0.51848 0.5477 0.78786 1.644 0.80859 3.2871l0.03125 2.3945c0.01037 0.75746 0.07673 1.4982 0.20117 2.2207 0.06222 0.3496 0.16538 0.80985 0.31055 1.3809h5.2734v-0.64649c-0.45626-0.31464-0.74666-0.80451-0.8711-1.4688-0.08295-0.41951-0.125-1.2176-0.125-2.3945v-1.7305c0-1.8062-0.22207-3.1475-0.66796-4.0215-0.43552-0.88565-1.1826-1.5671-2.2402-2.0449 1.2651-0.48944 2.1731-1.323 2.7227-2.5 0.54958-1.1886 0.82422-2.3936 0.82422-3.6172 0-1.0138-0.1452-1.9166-0.43555-2.709s-0.6839-1.5154-1.1816-2.168c-0.60143-0.79242-1.3379-1.3929-2.209-1.8008-0.86067-0.40786-2.0939-0.6291-3.7012-0.66406h-11.246zm21.738 0v25.766h4.7598v-25.766h-4.7598zm7.6641 0v25.766h17.367v-4.6328h-12.213v-21.133h-5.1543zm21.631 0v25.766h17.373v-4.6328h-12.691v-6.625h11.137v-4.4746h-11.137v-5.4707h12.133v-4.5625h-16.814zm-46.352 4.4746h5.5684c1.0369 0 1.8136 0.15209 2.332 0.45508 0.92289 0.53605 1.3848 1.5849 1.3848 3.1465-1e-5 1.445-0.47569 2.411-1.4297 2.9004-0.53921 0.27968-1.3493 0.41992-2.4277 0.41992h-5.4277v-6.9219z"
    fill-rule="evenodd" />
  <rect x="2.5" y="67.5" width="195" height="63.666" fill="none" stroke="currentColor" stroke-dashoffset=".5"
    stroke-width="3" />
    </svg>
    <svg x="662" y="440" width="96" height="96" viewBox="0 0 200 200" fill="currentColor" color="#0f172a">
      <g fill="none" stroke="transparent" stroke-width="3">
    <path d="m0 16v-16h16" />
    <path d="m200 16v-16h-16" />
    <path d="m0 184v16h16" />
    <path d="m200 184v16h-16" />
  </g>
  <g fill-rule="evenodd">
    <path d="m124.85 92.936v5.5h8.5v28.99h-8.5273v5.3516h37v-5.3516h-8.4727v-31.053-3.4375h-28.5z" />
    <ellipse cx="143.53" cy="76.763" rx="10" ry="10" />
    <path
      d="m85.092 37.453c-1.662-3e-3 -3.231 0.093-4.59 0.256-4.193 0.504-7.735 1.879-10.234 3.129-2.529 1.265-5.839 3.351-7.492 4.178-1.013 0.507-4.016 2.059-7.689 3.32-3.771 1.295-8.317 2.114-10.863 2.387-5.446 0.583-6.59 0.97-16.646-0.377-2.345-0.314-4.407-0.913-6.377-1.541-0.85-0.271-1.688-0.546-2.516-0.809-0.871-0.277-1.693-0.555-2.484-0.832v110.96c0.326 0.108 0.636 0.216 0.973 0.322 1.198 0.38 2.545 0.839 4.027 1.277 1.701 0.502 3.585 0.977 5.713 1.262 10.257 1.374 12.528 0.962 17.842 0.393 2.943-0.315 7.653-1.152 11.955-2.629 4.077-1.4 7.432-3.142 8.301-3.576 2.19-1.095 5.412-3.139 7.494-4.18 2.112-1.056 5.15-2.221 8.596-2.635 2.972-0.357 7.827-0.277 11.332 0.613 0.378 0.096 0.971 0.303 1.641 0.551 1.097 0.406 2.465 0.958 3.914 1.578 0.79 0.338 1.573 0.682 2.35 1.031 0.87-0.39 1.766-0.778 2.65-1.154 1.339-0.569 2.592-1.074 3.613-1.453 0.673-0.25 1.265-0.456 1.645-0.553 3.505-0.89 8.362-0.97 11.334-0.613 3.446 0.414 6.484 1.579 8.596 2.635 2.082 1.041 5.303 3.085 7.492 4.18 0.869 0.435 4.224 2.176 8.301 3.576 4.302 1.477 9.012 2.314 11.955 2.629 5.313 0.569 7.585 0.982 17.842-0.393 2.216-0.297 4.162-0.799 5.916-1.324 1.398-0.419 2.683-0.853 3.824-1.215 0.407-0.129 0.784-0.26 1.176-0.391v-110.97c-0.853 0.301-1.739 0.603-2.688 0.904-0.762 0.242-1.532 0.494-2.312 0.744-2.031 0.652-4.155 1.281-6.58 1.605-10.056 1.347-11.199 0.96-16.645 0.377-2.546-0.273-7.094-1.092-10.865-2.387-3.674-1.261-6.674-2.814-7.688-3.32-1.653-0.826-4.965-2.913-7.494-4.178-2.499-1.25-6.041-2.625-10.234-3.129-1.359-0.163-2.927-0.259-4.59-0.256-0.554 1e-3 -1.119 0.013-1.689 0.037-2.284 0.097-4.668 0.389-6.881 0.951-1.451 0.368-2.826 0.858-4.027 1.344-1.062 0.43-1.97 0.853-2.656 1.191-0.61-0.303-1.427-0.679-2.344-1.062-1.253-0.524-2.716-1.064-4.324-1.473-2.213-0.562-4.597-0.854-6.881-0.951-0.571-0.024-1.135-0.036-1.689-0.037zm0.719 5.035c2.25 0.054 4.649 0.298 6.621 0.799 2.193 0.557 4.279 1.494 5.555 2.117v100.27c-1.593-0.654-3.116-1.236-4.324-1.543-2.213-0.562-4.597-0.854-6.881-0.951-0.571-0.024-1.135-0.036-1.689-0.037-1.662-3e-3 -3.231 0.092-4.59 0.256-4.193 0.504-7.735 1.879-10.234 3.129-2.529 1.265-5.841 3.351-7.494 4.178-1.013 0.507-4.014 2.057-7.688 3.318-3.771 1.295-8.317 2.116-10.863 2.389-5.446 0.583-6.59 0.97-16.646-0.377-2.345-0.314-4.407-0.913-6.377-1.541v-100.46c1.701 0.502 3.585 0.977 5.713 1.262 10.257 1.374 12.528 0.962 17.842 0.393 2.943-0.315 7.653-1.152 11.955-2.629 4.077-1.4 7.432-3.142 8.301-3.576 2.19-1.095 5.412-3.137 7.494-4.178 2.112-1.056 5.15-2.223 8.596-2.637 0.743-0.089 1.603-0.151 2.531-0.18 0.696-0.022 1.43-0.024 2.18-6e-3zm31.236 6e-3c0.928 0.029 1.788 0.09 2.531 0.18 3.446 0.414 6.484 1.581 8.596 2.637 2.082 1.041 5.303 3.083 7.492 4.178 0.869 0.435 4.224 2.176 8.301 3.576 4.302 1.477 9.012 2.314 11.955 2.629 5.313 0.569 7.585 0.981 17.842-0.393 2.216-0.297 4.162-0.799 5.916-1.324v100.45c-2.031 0.652-4.155 1.281-6.58 1.605-10.056 1.347-11.199 0.96-16.645 0.377-2.546-0.273-7.094-1.094-10.865-2.389-3.674-1.261-6.674-2.812-7.688-3.318-1.653-0.826-4.965-2.913-7.494-4.178-2.499-1.25-6.041-2.625-10.234-3.129-1.359-0.163-2.927-0.259-4.59-0.256-0.554 1e-3 -1.119 0.013-1.689 0.037-2.284 0.097-4.668 0.389-6.881 0.951-1.138 0.289-2.538 0.801-4.027 1.404v-100.27c1.302-0.621 3.229-1.46 5.258-1.975 2.629-0.667 6.019-0.879 8.803-0.793z" />
  </g>
    </svg>
    <svg x="802" y="440" width="96" height="96" viewBox="0 0 200 200" fill="currentColor" color="#0f172a">
      <g fill="none">
    <g stroke="transparent" stroke-width="3">
      <path d="m0 16v-16h16" />
      <path d="m200 16v-16h-16" />
      <path d="m0 184v16h16" />
      <path d="m200 184v16h-16" />
    </g>
  </g>
  <path
    d="m15.713 46.98v105.4h168.66v-105.4h-168.66zm5 5h158.66v95.405h-158.66v-95.405zm79.586 21.291c-0.442-1e-3 -0.887 0.011-1.338 0.036-2.518 0.137-4.265 0.52-6.594 1.445-1.893 0.752-3.686 1.817-5.443 3.23-0.874 0.704-2.231 2.024-2.844 2.768-0.603 0.732-1.674 2.292-2.131 3.105-0.723 1.288-1.546 3.144-1.924 4.34-0.411 1.303-0.721 3.25-0.837 5.274-0.101 1.747-0.112 12.334-0.014 13.219 0.32 2.904 0.995 5.282 2.162 7.609 1.276 2.544 3.164 4.929 5.355 6.764 1.545 1.292 3.386 2.428 5.25 3.238 1.88 0.817 4.219 1.413 6.403 1.633 0.378 0.038 0.786 0.08 0.906 0.093v2e-3c0.12 0.014 0.795 0.015 1.5 2e-3 1.956-0.034 3.767-0.355 5.82-1.031 4.614-1.518 7.943-3.924 10.815-7.81 0.659-0.893 1.222-1.826 1.803-2.995 0.654-1.316 1.012-2.284 1.404-3.791 0.706-2.715 0.894-5.46 0.82-11.996-0.073-6.473-0.272-8.169-1.279-10.972-1.211-3.369-2.989-6.131-5.418-8.416-1.698-1.598-3.481-2.798-5.653-3.803-2.805-1.299-5.673-1.937-8.763-1.944zm47.33 0.057c-11.066-9e-3 -18.364 7e-3 -18.399 0.041-0.034 0.035-0.039 2.128-0.011 5.279l0.047 5.221 6.414 0.02c3.527 0.01 6.462 0.042 6.519 0.07 0.058 0.028 0.122 0.097 0.145 0.154 0.022 0.058 0.041 8.642 0.041 19.075 0 10.432 0.016 19.832 0.035 20.888l0.035 1.92 0.631 0.02c1.51 0.048 9.577 0.04 9.656-0.01 0.073-0.046 0.085-0.743 0.076-4.297-0.049-19.585-0.031-37.502 0.037-37.621l0.077-0.131 6.482-0.039c3.565-0.022 6.504-0.063 6.533-0.092s0.046-2.399 0.037-5.267l-0.015-5.215-18.34-0.016zm-107.97 0.016v7.406c0 4.073 0.021 15.928 0.047 26.344 0.026 10.415 0.047 18.951 0.047 18.968-1e-3 0.031 31.258 0.015 31.287-0.015 0.047-0.048 0.151-9.951 0.108-10.235l-0.053-0.343-7.592-8e-3c-4.176-4e-3 -8.62 0.017-9.875 0.047-2.737 0.064-3.144 0.044-3.334-0.174-0.074-0.085-0.16-0.244-0.191-0.354-0.034-0.117-0.073-8.673-0.094-20.918l-0.037-20.718h-5.157-5.156zm60.625 10.57c1.452 0 2.267 0.12 3.35 0.496 3.149 1.093 5.501 3.444 6.59 6.59 0.57 1.648 0.615 2.338 0.574 8.881-0.018 2.867-0.06 5.266-0.1 5.681-0.219 2.291-0.676 3.686-1.73 5.286-1.005 1.525-2.52 2.775-4.428 3.652-0.906 0.417-2.356 0.786-3.318 0.846-0.31 0.019-0.661 0.042-0.781 0.052-0.473 0.041-1.82-0.082-2.536-0.23-1.94-0.402-3.613-1.305-4.998-2.695-0.911-0.915-1.463-1.678-1.994-2.754-0.467-0.947-0.677-1.515-0.853-2.305-0.326-1.462-0.326-1.455-0.354-7.352-0.026-5.629 8e-3 -6.878 0.209-7.841 0.412-1.975 1.503-3.893 3.098-5.446 1.306-1.271 2.648-2.06 4.295-2.521 0.963-0.27 1.572-0.339 2.976-0.34z" />
    </svg>
    <svg x="942" y="440" width="96" height="96" viewBox="0 0 200 200" fill="currentColor" color="#0f172a">
      <g fill="none">
    <g stroke="transparent" stroke-width="3">
      <path d="m0 16v-16h16" />
      <path d="m200 16v-16h-16" />
      <path d="m0 184v16h16" />
      <path d="m200 184v16h-16" />
    </g>

  </g>
  <path
    d="m95.438 173.25c-10.203-0.66-19.729-3.205-28.625-7.649-0.963-0.481-1.919-0.974-2.125-1.097-0.206-0.122-0.684-0.39-1.062-0.595-2.386-1.295-6.496-4.035-8.886-5.924-7.07-5.589-12.864-12.022-17.438-19.361-6.469-10.379-10.096-21.435-11.052-33.688-0.165-2.119-0.165-8.362 1e-3 -10.75 0.528-7.615 2.579-16.21 5.495-23.038 1.142-2.675 1.33-3.081 2.406-5.212 2.356-4.666 6.702-11.123 9.945-14.771 4.568-5.14 9.542-9.492 14.967-13.096 5.982-3.974 11.543-6.63 18.562-8.868 6.24-1.989 11.671-2.917 19.5-3.334 6.009-0.32 14.521 0.523 20.438 2.022 10.73 2.719 20.399 7.532 29.029 14.451 3.933 3.153 9.023 8.369 11.803 12.095 3.703 4.964 5.769 8.293 7.991 12.875 2.76 5.692 4.446 10.622 5.793 16.946 1.155 5.423 1.804 12.485 1.619 17.611-0.434 12.011-3.712 23.644-9.616 34.131-0.932 1.655-1.507 2.549-3.741 5.812-2.912 4.253-7.371 9.306-11.065 12.538-3.728 3.262-5.256 4.441-9 6.941-9.906 6.617-22.017 10.786-34.375 11.836-2.1 0.178-8.546 0.253-10.562 0.123zm11.188-5.373c10.041-1.141 17.809-3.484 25.88-7.806 4.216-2.258 9.366-5.801 11.995-8.252 0.447-0.417 1.065-0.961 1.374-1.21 0.553-0.446 0.559-0.457 0.375-0.809-0.242-0.464-38.184-38.386-38.645-38.624-0.329-0.17-0.368-0.162-0.622 0.13-0.149 0.172-0.473 0.609-0.72 0.972-0.743 1.092-2.029 2.872-2.508 3.471-0.442 0.552-1.035 1.377-2.874 4-0.506 0.722-1.263 1.772-1.681 2.333-0.887 1.19-2.817 3.897-3.448 4.836-0.506 0.753-1.342 1.887-2.334 3.167-0.383 0.494-1.098 1.479-1.59 2.188-1.226 1.77-1.559 2.237-3.142 4.403-0.758 1.037-1.767 2.448-2.243 3.136s-1.435 2.009-2.132 2.938c-2.204 2.935-2.966 4.135-2.758 4.343 0.037 0.037 10.123 0.073 22.414 0.08l22.347 0.014 0.062 2.588c0.061 2.509 0.055 2.59-0.188 2.655-0.462 0.124-52.115 0.073-52.312-0.052-0.152-0.096-0.187-0.446-0.187-1.842v-1.723l0.473-0.857c0.26-0.471 0.931-1.484 1.491-2.25 1.074-1.47 1.238-1.698 4.298-5.956 2.125-2.957 3.9-5.44 4.646-6.5 0.266-0.378 1.074-1.503 1.795-2.5 1.225-1.694 1.912-2.65 6.396-8.906 0.949-1.324 2.158-2.997 2.688-3.718 0.529-0.721 1.624-2.24 2.432-3.375s2.102-2.952 2.875-4.037c2.323-3.26 2.469-3.482 2.469-3.76 0-0.317-52.89-53.253-53.341-53.387-0.362-0.108-0.694 0.147-1.477 1.135-0.34 0.429-1.226 1.502-1.969 2.383-1.17 1.389-2.425 3.17-4.739 6.727-0.935 1.437-3.18 5.648-4.046 7.592-2.558 5.735-4.352 11.755-5.358 17.98-0.84 5.193-0.988 12.175-0.378 17.741 0.897 8.185 3.457 16.652 7.236 23.938 2.48 4.781 4.904 8.413 8.553 12.812 2.584 3.116 7.95 8.201 11.332 10.739 8.502 6.38 18.541 10.683 29.166 12.504 2.725 0.467 6.359 0.941 8.084 1.054 2.017 0.133 8.076-0.04 10.312-0.294zm45.448-23.394c0.819-0.972 1.658-2.005 1.865-2.296 0.206-0.291 0.856-1.17 1.444-1.952 2.502-3.33 4.962-7.491 6.866-11.61 3.263-7.06 5.327-14.571 6.15-22.375 0.258-2.446 0.22-10.886-0.06-13.5-0.605-5.619-1.62-10.27-3.327-15.233-4.426-12.864-12.048-23.507-22.864-31.922-8.278-6.441-17.526-10.718-28.023-12.962-4.509-0.964-11.852-1.623-16.125-1.448-8.034 0.33-15.681 1.905-22.938 4.727-2.884 1.121-7.752 3.51-10.312 5.059-3.585 2.169-8.583 5.879-10.355 7.686l-0.792 0.808 26.522 26.517c14.587 14.584 26.559 26.516 26.605 26.514 0.101-3e-3 1.127-1.389 3.097-4.185 1.969-2.793 3.716-5.229 5.783-8.062 4.007-5.492 4.935-7.063 5.875-9.939 0.75-2.295 1.035-4.058 1.049-6.499 0.024-3.991-0.61-6.832-2.289-10.25-2.036-4.147-5.208-7.451-9.334-9.724-2.268-1.249-5.031-2.135-7.93-2.541-2.127-0.298-5.297-0.187-7.358 0.257-3.681 0.794-6.557 2.125-9.546 4.42-2.195 1.685-4.677 4.726-5.968 7.313-0.439 0.882-0.932 1.463-1.242 1.463-0.116 0-0.513-0.131-0.883-0.291-0.369-0.16-1.009-0.361-1.422-0.446-1.357-0.28-1.937-0.511-1.937-0.77 0-0.692 1.511-3.698 2.73-5.431 3.935-5.594 9.244-9.304 15.742-11.002 2.417-0.632 4.28-0.853 7.153-0.849 6.081 9e-3 11.079 1.638 16.25 5.298 7.35 5.202 11.881 14.82 11.24 23.862-0.276 3.893-1.094 6.998-2.76 10.469-0.616 1.284-3.765 5.974-5.424 8.08-0.569 0.722-3.103 4.214-3.869 5.33-0.737 1.076-1.679 2.361-2.197 3-0.61 0.752-2.866 4.116-2.866 4.274 0 0.276 0.723 1.028 6.647 6.913 7.195 7.148 24.639 24.59 29.599 29.597 1.889 1.906 3.496 3.466 3.573 3.466 0.076 0 0.809-0.795 1.628-1.766z" />
    </svg>
    <svg x="1082" y="440" width="96" height="96" viewBox="0 0 200 200" fill="currentColor" color="#0f172a">
      <g fill="none" stroke="transparent" stroke-width="3">
    <path d="m0 16v-16h16" />
    <path d="m200 16v-16h-16" />
    <path d="m0 184v16h16" />
    <path d="m200 184v16h-16" />
  </g>
  <path
    d="m59.587 127.97c-1.0655-0.0612-4.0557-0.36872-4.6514-0.47841-1.0416-0.19179-2.7456-0.57409-3.2888-0.73789-2.1011-0.63356-3.9727-1.6107-5.6581-2.9541-0.62779-0.50038-1.9983-1.8849-2.4073-2.4318-1.0297-1.377-1.9637-3.0006-2.4-4.1718-0.27637-0.74196-0.57014-2.0549-0.86022-3.8446-0.20228-1.248-0.31476-2.5078-0.52756-5.9093-0.30238-11.673-0.15842-35.035-0.15842-35.035l11.076 0.0065s-0.03034 28.964 0.21483 36.073c0.05615 1.628 0.09341 2.0036 0.26396 2.661 0.38806 1.4959 0.8456 2.47 1.7264 3.6754 1.125 1.5396 2.6384 2.6082 4.6296 3.2687 0.78214 0.25949 1.1285 0.33923 2.0172 0.46434 0.85317 0.12012 3.3326 0.1206 4.1768 8.1e-4 1.6748-0.23766 2.7705-0.56523 3.9395-1.1777 0.72636-0.38057 1.1709-0.7079 1.8736-1.3796 0.69728-0.66652 1.2281-1.3063 1.488-1.7936 0.28871-0.54124 0.62048-1.72 0.78818-2.8004 0.59158-13.008 0.36702-39.087 0.36702-39.087l11.027-0.01491s0.30448 24.417-0.19075 36.61c-0.19776 4.5333-0.61208 6.9503-1.6354 9.5402-0.35195 0.89077-1.0027 1.9873-1.6371 2.7585-1.3135 1.5967-1.4318 1.7244-1.9864 2.1429-1.3623 1.0281-2.3407 1.7081-2.7729 1.9271-0.31878 0.16154-1.4882 0.65276-2.694 1.1316-1.0258 0.40738-1.1058 0.42802-3.4648 0.89395-1.4864 0.29358-2.5946 0.46642-3.7971 0.59219zm35.245-0.82969v-54.821l9.0537 7e-3c7.7452 0.58284 16.253-1.1014 23.716 1.8305 1.7714 0.75122 3.2961 1.7642 5.4648 3.6307 1.0568 0.90958 2.2333 2.2883 3.1129 3.6482 0.40935 0.63284 1.4909 2.4994 1.7583 3.0344 0.71015 1.421 1.2619 3.1489 1.8339 5.7431 0.0886 0.40199 0.49815 2.8316 0.71603 4.248 0.17893 1.1633 0.25208 3.4224 0.21745 6.7161-0.0266 2.5314-0.0422 2.9758-0.12433 3.5361-0.082 0.55951-0.18757 1.3149-0.49643 3.5516-0.19222 1.392-0.34634 2.0198-0.89928 3.6629-0.61865 1.8384-0.71278 2.0744-1.3252 3.3225-0.98799 2.0136-1.3037 2.553-2.0135 3.4411-0.84752 1.0603-1.7135 2.0968-2.0744 2.4827-0.15663 0.16749-0.58381 0.55202-0.94928 0.85451-0.36547 0.30248-0.83536 0.69117-1.0442 0.86375-0.71704 0.59253-1.2098 0.89811-2.3732 1.4717-4.2086 2.0749-7.6188 2.5135-16.351 2.7561-6.0741 0.0748-18.222 0.0204-18.222 0.0204zm18.389-9.1848c3.0914-0.0616 4.6655-0.15883 6.2177-0.38411 1.7022-0.24703 3.396-0.78202 4.4374-1.4014 0.37298-0.22187 1.1194-0.79819 1.4886-1.1494 0.27498-0.26158 0.93059-1.071 1.2366-1.5267 2.0654-3.0758 2.5417-8.4863 2.6457-10.276 0.0704-1.211 0.0707-4.7964 4.9e-4 -6.2652-0.15519-3.2477-0.33072-4.6131-0.79582-6.1902-0.52388-1.7764-0.9223-2.6652-1.8059-4.0284-0.83208-1.2837-1.416-1.9495-2.1619-2.4652-0.73114-0.50544-2.7272-1.5274-3.3958-1.7386-1.0046-0.31734-3.0923-0.58909-5.3366-0.69464-1.5695-0.07381-9.8166-0.10473-9.8166-0.10473v36.201zm36.638 9.2117-3e-3 -54.743 11.045-0.0029 0.0327 54.801z"
    fill="currentColor" />
  <rect x="17.88" y="47.961" width="164.54" height="103.66" fill="none" stroke="currentColor" stroke-width="5" />
    </svg>
  </g>
</svg>
